Coordinates
version=1
nRows=21
nColumns=22
inDegrees=yes

Units are S.I. units (second, meters, Newtons, ...)
If the header above contains a line with 'inDegrees', this indicates whether rotational values are in degrees (yes) or radians (no).

endheader
time	pelvis_tilt	pelvis_list	pelvis_rotation	pelvis_tx	pelvis_ty	pelvis_tz	hip_flexion_r	hip_adduction_r	hip_rotation_r	knee_angle_r	ankle_angle_r	subtalar_angle_r	hip_flexion_l	hip_adduction_l	hip_rotation_l	knee_angle_l	ankle_angle_l	subtalar_angle_l	lumbar_extension	lumbar_bending	lumbar_rotation
      3.92000000	      6.20125640	     -4.23276143	      8.63381700	      0.48219068	      1.07784126	     -0.32930677	      6.75908719	      6.44207844	    -11.14514644	    -14.18396490	      3.71289104	     -3.38260493	      4.68837748	     -7.24873558	      5.49372409	    -56.59677162	     -1.62324324	     11.33285520	     -6.46313123	      2.79280128	     -6.60957168
      3.93000000	      6.26413328	     -4.33311807	      8.44369382	      0.48811355	      1.07863217	     -0.32753058	      6.14748281	      6.75738702	    -10.95434803	    -13.75508919	      3.79607104	     -3.42127163	      5.36818603	     -7.39861236	      5.46167703	    -57.11143692	     -0.99624977	     10.47878017	     -6.52435729	      2.82924586	     -6.10754023
      3.94000000	      6.32133417	     -4.39832754	      8.21775681	      0.49392386	      1.07943813	     -0.32578427	      5.53863232	      7.03028414	    -10.72412263	    -13.32387242	      3.87026004	     -3.45760341	      5.99006394	     -7.49855748	      5.40433904	    -57.42978707	     -0.27382001	      9.66188764	     -6.58561108	      2.82851459	     -5.60764048
      3.95000000	      6.38287842	     -4.41735756	      7.96963096	      0.49960148	      1.08025457	     -0.32411444	      4.93744384	      7.24215552	    -10.46867192	    -12.92326781	      3.95284095	     -3.49300952	      6.54421427	     -7.53222488	      5.33865664	    -57.56136015	      0.52772972	      8.90330841	     -6.66381906	      2.78353593	     -5.11970931
      3.96000000	      6.44868929	     -4.39654728	      7.70805010	      0.50515931	      1.08107553	     -0.32253335	      4.34225684	      7.39987960	    -10.19336198	    -12.54701681	      4.04094810	     -3.53044664	      7.03089493	     -7.50649531	      5.27021565	    -57.50957105	      1.38963248	      8.22662774	     -6.75410093	      2.70293865	     -4.65779296
      3.97000000	      6.49910569	     -4.36112804	      7.43289427	      0.51060834	      1.08184084	     -0.32102785	      3.79061985	      7.52278965	     -9.94593406	    -12.21858855	      4.14680311	     -3.56565836	      7.48017092	     -7.45723623	      5.18500712	    -57.29163661	      2.33492303	      7.74754119	     -6.82892243	      2.61226156	     -4.21695440
      3.98000000	      6.56580976	     -4.29386210	      7.17141099	      0.51593330	      1.08262304	     -0.31961327	      3.20119144	      7.61187930	     -9.61869062	    -11.84969426	      4.21520532	     -3.63694979	      7.85868093	     -7.35949895	      5.12120032	    -56.90318139	      3.24683708	      7.19603629	     -6.92889795	      2.49281530	     -3.83976183
      3.99000000	      6.59508257	     -4.23765482	      6.91991300	      0.52111948	      1.08327517	     -0.31826203	      2.68950317	      7.69162469	     -9.35694520	    -11.53366312	      4.29320005	     -3.72570264	      8.24308926	     -7.27209758	      5.05280051	    -56.37700214	      4.23104452	      6.82132859	     -6.98849139	      2.38474402	     -3.50327544
      4.00000000	      6.58743063	     -4.20013474	      6.68181156	      0.52613860	      1.08379165	     -0.31697312	      2.24146639	      7.77662545	     -9.10651988	    -11.24217311	      4.36648317	     -3.83917486	      8.63851617	     -7.19258898	      5.00997255	    -55.72620812	      5.24147508	      6.54753556	     -7.01282581	      2.29757805	     -3.19477650
      4.01000000	      6.54514880	     -4.17431124	      6.46430503	      0.53101629	      1.08417577	     -0.31573705	      1.85463633	      7.86033841	     -8.91324252	    -10.97549020	      4.43866741	     -3.97170840	      9.04196195	     -7.12723273	      4.96907800	    -54.95498812	      6.26742166	      6.34168414	     -7.00116491	      2.22155541	     -2.94875837
      4.02000000	      6.48582928	     -4.15015816	      6.26685481	      0.53576865	      1.08448199	     -0.31458069	      1.48330025	      7.94121430	     -8.68140824	    -10.69068251	      4.47106578	     -4.19730032	      9.42222056	     -7.05094970	      4.95948863	    -54.05681095	      7.25309105	      6.13714372	     -6.97392477	      2.15061012	     -2.72721907
      4.03000000	      6.39501593	     -4.14197249	      6.08955239	      0.54039408	      1.08466281	     -0.31348813	      1.18458123	      8.02364518	     -8.53218452	    -10.46128819	      4.54070201	     -4.35613287	      9.80391424	     -6.98847009	      4.96228306	    -53.05496575	      8.23074925	      5.99980895	     -6.91417223	      2.09666385	     -2.55260917
      4.04000000	      6.30138063	     -4.12697354	      5.91605502	      0.54491527	      1.08481419	     -0.31246521	      0.88085457	      8.09814686	     -8.31589831	    -10.20788829	      4.57847325	     -4.61405326	     10.13291389	     -6.90292607	      4.99239010	    -51.93532969	      9.11850801	      5.83508510	     -6.85414082	      2.03851129	     -2.36732189
      4.05000000	      6.17458430	     -4.10923432	      5.79240174	      0.54931628	      1.08487456	     -0.31159474	      0.64258598	      8.15178192	     -8.19375915	     -9.99513985	      4.64908699	     -4.69185709	     10.46099270	     -6.78893675	      5.09157386	    -50.72689471	      9.95910424	      5.72478328	     -6.75647438	      1.98550558	     -2.26639919
      4.06000000	      6.10042350	     -4.08422135	      5.59353085	      0.55366649	      1.08500553	     -0.31066861	      0.34091218	      8.20512771	     -7.95353900	     -9.77252171	      4.73148386	     -4.94154886	     10.64629972	     -6.68963355	      5.09996634	    -49.40442484	     10.69338359	      5.51007104	     -6.72178865	      1.92267816	     -2.04522506
      4.07000000	      6.00321529	     -4.05464544	      5.42422216	      0.55791156	      1.08508006	     -0.30988096	      0.09515352	      8.23678613	     -7.78219861	     -9.59672936	      4.85386259	     -5.04572587	     10.81137998	     -6.56369012	      5.15930801	    -48.01508830	     11.39425186	      5.36916645	     -6.65803980	      1.86397943	     -1.87173470
      4.08000000	      5.93086840	     -4.00457763	      5.24334770	      0.56207477	      1.08520505	     -0.30916884	     -0.17572456	      8.24293038	     -7.56522525	     -9.42088487	      4.96423449	     -5.14357951	     10.88437677	     -6.40730827	      5.22309061	    -46.55490510	     12.02280806	      5.24697883	     -6.62194332	      1.79006191	     -1.67983245
      4.09000000	      5.86501802	     -3.94823319	      5.05060947	      0.56615828	      1.08533807	     -0.30850963	     -0.44052305	      8.23490594	     -7.34560042	     -9.26326365	      5.08410701	     -5.21243559	     10.89647255	     -6.23979689	      5.28629533	    -45.05379797	     12.61239063	      5.18219574	     -6.59027039	      1.71217571	     -1.48391620
      4.10000000	      5.82307716	     -3.88071276	      4.83671279	      0.57017327	      1.08551227	     -0.30789589	     -0.72100866	      8.20912565	     -7.09857879	     -9.12126412	      5.20644834	     -5.26751496	     10.82654964	     -6.06031469	      5.33259945	    -43.52426623	     13.15377367	      5.18033770	     -6.58080431	      1.62656159	     -1.26207981
      4.11000000	      5.78547047	     -3.80915196	      4.60926948	      0.57412647	      1.08568413	     -0.30732822	     -0.99163659	      8.17122715	     -6.84545088	     -9.00143421	      5.33973089	     -5.30270307	     10.70969758	     -5.87763078	      5.35660327	    -41.99838380	     13.65877522	      5.24436490	     -6.56682354	      1.54011698	     -1.03173584
      4.12000000	      5.75997522	     -3.73591657	      4.35835221	      0.57800367	      1.08586571	     -0.30677231	     -1.26047542	      8.12527306	     -6.57767205	     -8.90207513	      5.47590521	     -5.32356702	     10.54079248	     -5.69418959	      5.36057228	    -40.49608851	     14.11067916	      5.37633672	     -6.56162376	      1.45099238	     -0.79275548
